<svg height="496pt" viewBox="0 0 496 496" width="496pt" xmlns="http://www.w3.org/2000/svg"><path d="m319.144531 197.976562c5.457031-5.746093 8.855469-13.457031 8.855469-21.976562 0-17.648438-14.351562-32-32-32s-32 14.351562-32 32c0 8.542969 3.414062 16.273438 8.886719 22.015625-5.445313 3-10.285157 7.039063-14.246094 11.945313-3.34375-1.191407-6.886719-1.960938-10.640625-1.960938s-7.296875.769531-10.640625 1.960938c-3.953125-4.90625-8.800781-8.945313-14.246094-11.945313 5.472657-5.742187 8.886719-13.472656 8.886719-22.015625 0-17.648438-14.351562-32-32-32s-32 14.351562-32 32c0 8.519531 3.398438 16.230469 8.855469 21.976562-14.808594 8.183594-24.855469 23.945313-24.855469 42.023438v40c0 4.414062 3.574219 8 8 8h42.800781c-1.777343 5.015625-2.800781 10.382812-2.800781 16v40c0 4.414062 3.574219 8 8 8h80c4.425781 0 8-3.585938 8-8v-40c0-5.617188-1.023438-10.984375-2.800781-16h42.800781c4.425781 0 8-3.585938 8-8v-40c0-18.078125-10.046875-33.839844-24.855469-42.023438zm-39.144531-21.976562c0-8.824219 7.175781-16 16-16s16 7.175781 16 16-7.175781 16-16 16-16-7.175781-16-16zm-16 64c0 8.824219-7.175781 16-16 16s-16-7.175781-16-16 7.175781-16 16-16 16 7.175781 16 16zm-80-64c0-8.824219 7.175781-16 16-16s16 7.175781 16 16-7.175781 16-16 16-16-7.175781-16-16zm-16 96v-32c0-17.648438 14.351562-32 32-32 9.296875 0 18.03125 4.128906 24.046875 11-4.941406 5.632812-8.046875 12.929688-8.046875 21 0 8.519531 3.398438 16.230469 8.855469 21.976562-4.726563 2.617188-8.945313 6.03125-12.527344 10.023438zm112 64h-64v-32c0-17.648438 14.351562-32 32-32s32 14.351562 32 32zm48-64h-44.320312c-3.582032-3.992188-7.800782-7.40625-12.527344-10.023438 5.449218-5.746093 8.847656-13.457031 8.847656-21.976562 0-8.070312-3.105469-15.367188-8.046875-21 6.015625-6.871094 14.75-11 24.046875-11 17.648438 0 32 14.351562 32 32zm0 0"/><path d="m64 80v16c17.648438 0 32-14.351562 32-32h-16c0 8.824219-7.175781 16-16 16zm0 0"/><path d="m64 448v16c17.648438 0 32-14.351562 32-32h-16c0 8.824219-7.175781 16-16 16zm0 0"/><path d="m432 368c-14.769531 0-28.335938 5.070312-39.183594 13.503906l-20.695312-20.695312c27.160156-29.847656 43.878906-69.367188 43.878906-112.808594s-16.71875-82.960938-43.871094-112.816406l20.695313-20.695313c10.839843 8.441407 24.40625 13.511719 39.175781 13.511719 35.289062 0 64-28.710938 64-64s-28.710938-64-64-64-64 28.710938-64 64c0 14.769531 5.070312 28.335938 13.503906 39.183594l-20.695312 20.695312c-29.847656-27.167968-69.367188-43.878906-112.808594-43.878906s-82.960938 16.710938-112.816406 43.871094l-20.695313-20.695313c8.441407-10.839843 13.511719-24.40625 13.511719-39.175781 0-35.289062-28.710938-64-64-64s-64 28.710938-64 64 28.710938 64 64 64c14.769531 0 28.335938-5.070312 39.183594-13.503906l20.695312 20.695312c-27.160156 29.847656-43.878906 69.367188-43.878906 112.808594s16.71875 82.960938 43.871094 112.816406l-20.695313 20.695313c-10.839843-8.441407-24.40625-13.511719-39.175781-13.511719-35.289062 0-64 28.710938-64 64s28.710938 64 64 64 64-28.710938 64-64c0-14.769531-5.070312-28.335938-13.503906-39.183594l20.695312-20.695312c29.847656 27.167968 69.367188 43.878906 112.808594 43.878906s82.960938-16.710938 112.816406-43.871094l20.695313 20.695313c-8.441407 10.839843-13.511719 24.40625-13.511719 39.175781 0 35.289062 28.710938 64 64 64s64-28.710938 64-64-28.710938-64-64-64zm0-352c26.472656 0 48 21.527344 48 48s-21.527344 48-48 48-48-21.527344-48-48 21.527344-48 48-48zm-368 96c-26.472656 0-48-21.527344-48-48s21.527344-48 48-48 48 21.527344 48 48-21.527344 48-48 48zm0 368c-26.472656 0-48-21.527344-48-48s21.527344-48 48-48 48 21.527344 48 48-21.527344 48-48 48zm32-232c0-83.816406 68.183594-152 152-152s152 68.183594 152 152-68.183594 152-152 152-152-68.183594-152-152zm336 232c-26.472656 0-48-21.527344-48-48s21.527344-48 48-48 48 21.527344 48 48-21.527344 48-48 48zm0 0"/><path d="m464 64h-16c0 8.824219-7.175781 16-16 16v16c17.648438 0 32-14.351562 32-32zm0 0"/><path d="m432 448v16c17.648438 0 32-14.351562 32-32h-16c0 8.824219-7.175781 16-16 16zm0 0"/></svg>